<?xml version="1.0" standalone="no"?>
<!DOCTYPE svg PUBLIC "-//W3C//DTD SVG 20010904//EN"
 "http://www.w3.org/TR/2001/REC-SVG-20010904/DTD/svg10.dtd">
<svg version="1.0" xmlns="http://www.w3.org/2000/svg"
 width="460.000000pt" height="460.000000pt" viewBox="0 0 460.000000 460.000000"
 preserveAspectRatio="xMidYMid meet">
<metadata>
Created by potrace 1.11, written by Peter Selinger 2001-2013
</metadata>
<g transform="translate(0.000000,460.000000) scale(0.100000,-0.100000)"
fill="#000000" stroke="none">
<path d="M4110 4580 c0 -68 53 -220 77 -220 7 0 13 3 14 8 0 4 4 58 7 120 l7
112 -52 0 c-46 0 -53 -3 -53 -20z"/>
<path d="M4592 4540 c0 -14 2 -19 5 -12 2 6 2 18 0 25 -3 6 -5 1 -5 -13z"/>
<path d="M1890 4482 c-19 -1 -44 -7 -55 -12 -11 -5 -59 -16 -107 -25 -47 -8
-99 -22 -114 -30 -15 -7 -46 -17 -68 -20 -40 -6 -53 -10 -106 -33 -14 -6 -43
-16 -65 -22 -22 -6 -62 -24 -90 -40 -27 -16 -61 -35 -75 -42 -24 -12 -33 -19
-90 -68 -14 -12 -37 -29 -51 -37 -14 -9 -66 -55 -114 -104 -49 -49 -93 -89
-99 -89 -7 0 -21 -7 -32 -15 -12 -8 -24 -12 -27 -8 -4 3 -17 -2 -31 -10 -22
-15 -24 -20 -14 -54 8 -31 7 -73 -4 -160 -1 -7 -8 -15 -15 -17 -8 -3 -12 -10
-9 -15 4 -5 -4 -18 -16 -28 -26 -21 -23 -14 -54 -143 -72 -301 -75 -659 -7
-790 7 -14 13 -35 13 -46 0 -12 7 -27 15 -34 8 -7 22 -37 32 -67 15 -46 15
-56 3 -63 -27 -17 2 -128 58 -222 27 -46 59 -102 70 -124 12 -23 39 -57 60
-75 22 -19 43 -45 47 -59 16 -55 85 -144 85 -110 0 6 -16 76 -36 157 -48 198
-53 393 -9 393 8 0 19 8 24 18 10 16 12 16 25 0 15 -21 28 -23 25 -5 -4 26 14
47 40 47 22 -1 24 -2 9 -11 -10 -5 -18 -17 -18 -24 0 -8 -3 -15 -7 -15 -17 -1
-42 -28 -48 -52 -4 -17 -1 -31 12 -43 13 -13 14 -20 5 -23 -29 -9 -9 -27 36
-30 88 -5 109 -9 133 -25 32 -23 225 -24 255 -2 10 8 30 15 43 15 13 0 49 16
81 35 32 19 63 35 69 35 6 0 11 4 11 10 0 5 6 7 14 4 35 -13 113 120 104 180
-3 22 28 63 52 66 40 6 60 -1 60 -20 0 -10 8 -24 18 -29 12 -6 24 -36 36 -85
10 -42 21 -76 26 -76 4 0 10 -15 12 -32 6 -41 40 -131 53 -140 5 -4 13 -4 17
-2 4 3 8 -6 8 -19 0 -13 3 -27 7 -31 12 -12 14 -57 3 -71 -6 -7 -9 -18 -8 -24
5 -18 -142 -74 -175 -67 -17 3 -57 -4 -102 -19 -40 -14 -82 -25 -92 -25 -27 0
-44 -15 -38 -31 8 -21 83 -60 88 -45 3 7 11 5 24 -7 11 -9 27 -17 36 -17 21 0
21 -9 2 -34 -11 -15 -17 -16 -28 -8 -11 9 -20 5 -42 -19 -22 -25 -24 -33 -14
-40 9 -6 10 -9 2 -9 -6 0 -19 -3 -29 -7 -13 -5 -15 -3 -10 8 4 8 0 5 -8 -5
-12 -15 -16 -16 -16 -5 0 8 -3 10 -8 4 -4 -5 -18 -10 -32 -9 -14 0 -35 -8 -47
-19 -21 -19 -23 -19 -23 -3 0 14 -3 16 -13 7 -8 -6 -17 -8 -20 -4 -4 3 -7 -1
-7 -10 0 -10 -4 -17 -10 -17 -5 0 -10 4 -10 9 0 16 -50 -1 -51 -18 0 -10 -2
-11 -6 -3 -2 6 -9 10 -13 7 -5 -3 -14 4 -20 15 -10 18 -8 22 8 27 18 4 37 41
27 51 -8 8 -85 -74 -85 -90 0 -10 -6 -18 -13 -18 -7 0 -17 -8 -24 -19 -20 -32
-59 -32 -88 1 -14 16 -30 26 -36 23 -5 -4 -8 -1 -7 6 2 7 -8 15 -21 18 -17 5
-27 17 -33 39 -5 18 -13 32 -18 32 -15 0 -12 -77 3 -83 9 -4 8 -8 -3 -16 -10
-7 -11 -11 -2 -11 6 0 12 -6 12 -13 0 -7 5 -18 12 -25 6 -6 12 -32 13 -57 1
-34 7 -51 28 -73 15 -15 27 -36 27 -45 0 -9 7 -17 15 -17 16 0 20 -16 6 -24
-5 -3 -11 1 -15 9 -7 19 -26 20 -26 2 0 -8 -8 -29 -17 -48 -9 -19 -19 -63 -21
-99 -2 -36 -7 -74 -12 -85 -5 -11 -14 -54 -20 -95 -7 -41 -20 -114 -31 -162
-10 -48 -19 -94 -19 -102 0 -8 18 -33 39 -55 22 -23 43 -51 46 -62 4 -13 12
-18 22 -15 8 3 23 6 33 6 13 0 21 13 31 49 9 37 26 64 66 105 36 37 51 60 47
71 -5 11 0 18 15 22 11 3 21 10 21 17 1 6 7 25 15 41 l15 30 -6 -35 -6 -35 25
35 c13 19 29 49 34 65 6 17 16 29 22 28 6 -2 11 2 11 7 0 6 5 10 10 10 7 0 7
-7 0 -21 -6 -11 -13 -40 -16 -65 -2 -25 -13 -66 -24 -92 -11 -26 -36 -110 -55
-187 -32 -123 -36 -154 -35 -260 0 -66 -4 -144 -9 -173 -8 -49 1 -112 24 -177
4 -11 -2 -7 -14 10 -11 17 -21 38 -21 47 0 20 -36 43 -45 29 -3 -5 -20 -13
-37 -17 -18 -3 -40 -11 -50 -17 -9 -6 -21 -8 -25 -4 -4 5 -1 12 6 16 8 5 10
14 6 21 -5 9 -4 11 3 6 9 -5 12 8 11 46 l-1 53 -18 -69 c-10 -39 -16 -74 -14
-78 8 -12 -16 -39 -27 -32 -5 3 -6 -2 -3 -10 3 -9 1 -29 -4 -45 -9 -26 -8 -29
5 -24 19 7 14 -3 -24 -55 -14 -18 -23 -34 -22 -36 22 -14 66 -23 122 -25 66
-2 67 -2 67 23 0 14 5 26 10 26 6 0 10 -11 10 -25 0 -24 2 -25 74 -25 l74 0
-9 38 c-5 20 -9 48 -9 61 0 20 3 22 23 16 12 -4 38 -10 57 -13 34 -7 35 -9 38
-55 2 -26 8 -47 14 -47 7 0 8 13 5 35 -6 37 5 46 22 18 10 -17 10 -17 11 0 0
10 5 15 10 12 6 -4 7 -11 4 -17 -4 -6 1 -8 15 -3 18 5 21 2 21 -19 0 -25 2
-26 58 -25 44 0 52 2 35 9 -15 6 -23 18 -23 34 0 14 -7 29 -16 34 -26 15 -6
35 27 28 31 -6 36 2 41 74 3 29 7 36 28 38 65 10 111 -22 229 -157 42 -48 59
-61 82 -61 16 0 29 5 29 10 0 6 -3 10 -7 10 -5 0 -25 16 -47 35 -21 19 -42 35
-47 35 -5 0 -6 8 -2 18 3 9 3 14 -1 10 -9 -7 -56 31 -56 45 0 5 7 7 15 3 22
-8 18 7 -5 22 -16 10 -20 10 -20 0 -1 -7 -9 3 -19 23 -29 58 -30 65 -11 65 11
0 15 -6 12 -18 -6 -24 19 -32 65 -21 32 7 39 14 46 46 10 41 26 49 34 16 4
-12 11 -18 20 -15 8 3 31 7 51 7 20 1 28 3 17 6 -48 10 -46 17 5 23 51 6 53 7
30 17 -23 11 -22 12 18 12 24 1 42 6 42 12 0 16 100 5 129 -13 18 -11 23 -11
32 2 8 12 9 10 4 -8 -5 -19 -3 -22 17 -20 18 2 23 -2 23 -21 0 -13 6 -26 14
-29 8 -3 11 0 7 7 -4 6 -1 11 8 11 10 0 13 -6 10 -15 -4 -8 -10 -15 -15 -15
-5 0 -9 -7 -9 -15 0 -8 -5 -15 -11 -15 -5 0 -7 5 -4 10 3 6 1 10 -5 10 -8 0
-10 -9 -6 -25 5 -20 3 -25 -11 -25 -13 0 -19 -9 -21 -36 -1 -26 -14 -51 -43
-85 -22 -27 -45 -49 -50 -49 -5 0 -9 -7 -9 -15 0 -18 60 -21 77 -4 8 8 13 8
17 0 8 -12 75 -15 92 -3 6 4 14 14 17 22 4 10 6 8 6 -7 1 -23 2 -23 156 -23
l155 0 0 28 c0 15 -7 88 -14 162 -21 212 -8 278 55 276 15 -1 25 -3 23 -5 -3
-3 6 -11 18 -19 l23 -13 -22 4 c-13 3 -23 2 -23 -3 0 -4 20 -11 44 -14 l45 -7
6 -57 c4 -31 14 -84 22 -117 9 -33 24 -100 33 -150 13 -63 18 -79 19 -53 1 49
-26 209 -45 270 -8 25 -13 59 -10 75 2 15 5 31 5 36 3 23 119 -3 122 -27 1 -6
3 -22 6 -36 2 -14 5 -54 7 -90 4 -59 1 -89 -18 -217 -6 -39 -5 -43 13 -43 18
0 20 8 24 77 l3 78 2 -77 c1 -46 6 -78 12 -78 7 0 10 46 9 133 -2 82 -6 123
-11 107 -6 -21 -7 -20 -2 5 3 17 8 47 11 68 7 52 23 46 24 -10 1 -27 3 -70 4
-98 2 -27 3 -85 4 -127 1 -72 3 -78 22 -78 18 0 20 4 14 28 -10 37 -21 276
-15 303 12 51 28 -12 33 -136 3 -72 8 -139 11 -150 2 -11 5 -26 5 -32 1 -10
33 -13 124 -13 l122 0 0 140 c1 76 4 142 7 145 4 4 16 2 27 -5 16 -8 21 -8 21
2 0 9 3 9 12 0 14 -14 42 -16 33 -3 -3 6 7 8 22 6 16 -2 31 -4 35 -4 5 -1 7
-4 6 -8 -6 -22 15 -83 27 -83 18 0 18 0 0 43 -8 19 -16 60 -17 91 -3 52 -11
67 -40 70 -5 1 -8 4 -8 9 0 4 0 12 0 18 0 5 5 7 10 4 20 -13 9 13 -12 29 -23
15 -23 16 -4 31 11 8 14 15 7 15 -7 0 -19 6 -27 14 -12 13 -12 16 5 28 17 12
17 16 5 32 -7 11 -11 23 -8 27 3 5 -2 9 -10 9 -9 0 -16 3 -16 8 0 4 -10 13
-21 21 -21 13 -22 12 -15 -36 3 -26 9 -59 12 -73 3 -14 7 -34 9 -45 2 -11 4
-22 5 -25 1 -3 3 -9 4 -15 1 -5 5 -17 8 -25 14 -33 16 -63 8 -86 -8 -20 -14
-23 -42 -17 -43 8 -58 20 -58 49 0 13 -4 24 -10 24 -5 0 -10 -11 -10 -25 0
-22 -4 -25 -37 -24 -45 1 -145 16 -122 18 18 1 32 25 22 35 -4 3 -22 6 -41 6
-31 0 -34 -2 -28 -24 6 -23 4 -23 -37 -15 -69 13 -123 27 -109 28 18 2 15 39
-5 50 -17 10 -17 10 0 11 19 0 24 39 7 56 -6 6 -5 37 1 84 6 41 8 93 4 115
-10 59 -9 71 11 290 2 22 4 59 5 82 1 24 6 43 12 43 6 0 7 -32 1 -92 -9 -99
-10 -173 -2 -278 3 -36 6 -105 6 -154 1 -49 5 -86 9 -83 9 10 13 197 4 197 -7
0 -6 277 2 357 7 74 25 22 19 -57 -5 -77 4 -340 13 -348 3 -3 5 -15 6 -26 0
-19 1 -19 10 3 6 16 6 35 -1 56 -11 32 -11 53 -10 285 1 139 17 232 19 108 1
-51 5 -78 12 -78 8 0 8 -4 1 -12 -5 -7 -8 -40 -7 -73 6 -104 9 -120 28 -123
18 -4 24 22 7 33 -6 4 -8 11 -4 16 3 5 10 7 15 4 11 -7 11 -10 9 190 -1 88 4
181 9 206 6 25 13 66 16 90 3 24 8 52 11 61 3 10 -6 32 -20 51 -23 30 -24 36
-12 53 12 15 28 19 96 20 117 3 115 1 113 178 0 79 -6 168 -12 197 -7 35 -8
81 -3 129 11 96 2 183 -23 209 -14 16 -30 21 -72 21 -29 0 -53 -4 -53 -9 0 -5
-9 -11 -19 -14 -13 -3 -21 -16 -25 -38 -6 -41 -25 -365 -31 -542 -3 -71 -10
-137 -16 -148 -7 -14 -7 -30 1 -55 9 -26 9 -39 1 -47 -8 -8 -11 -7 -11 6 0 9
-7 38 -16 64 -15 44 -33 64 -59 69 -5 1 -30 21 -56 45 -25 24 -63 54 -85 67
-21 13 -52 41 -68 63 l-29 41 17 76 c13 59 15 103 10 183 -7 114 -4 124 46
189 48 64 105 354 103 535 0 53 -7 84 -26 128 -25 54 -26 67 -25 205 0 111 -4
160 -16 202 -21 67 -44 175 -56 255 -9 63 -27 133 -39 150 -4 6 -25 64 -46
130 -22 66 -44 125 -51 132 -6 6 -17 25 -24 42 -6 17 -21 33 -31 36 -10 4 -19
10 -19 15 0 9 -62 81 -117 136 -18 18 -33 35 -33 39 0 15 -88 113 -134 149
-28 22 -86 53 -131 69 -44 16 -93 36 -108 44 -23 12 -64 14 -225 12 -108 -2
-213 -5 -232 -7z m234 -1435 c22 -22 36 -22 36 0 0 15 2 14 15 -3 12 -17 12
-20 0 -30 -20 -15 -19 -34 3 -34 10 -1 3 -7 -15 -15 -35 -15 -40 -24 -21 -43
9 -9 2 -12 -33 -12 -46 0 -69 -13 -69 -38 0 -21 -43 -53 -52 -39 -6 9 -11 8
-18 -3 -8 -13 -11 -12 -24 5 -14 18 -15 18 -16 3 0 -11 -8 -18 -20 -18 -11 0
-20 -6 -20 -14 0 -7 -7 -26 -15 -42 -8 -16 -12 -39 -9 -51 6 -24 -4 -28 -39
-15 -20 8 -50 59 -37 64 5 2 0 14 -10 28 l-20 25 0 -24 c0 -24 0 -24 -22 -5
-44 37 -62 42 -116 33 -29 -4 -62 -11 -73 -14 -12 -4 -27 -1 -38 9 -11 10 -29
14 -49 12 -18 -3 -32 0 -32 5 0 5 -16 9 -36 9 -21 0 -33 4 -29 10 4 7 -3 7
-20 0 -15 -6 -40 -10 -56 -10 -17 0 -39 -5 -50 -10 -23 -13 -23 -12 -4 33 13
31 19 35 50 35 19 0 47 8 61 17 18 11 24 12 18 4 -5 -9 1 -8 16 3 33 23 145
78 159 78 6 0 11 4 11 10 0 15 81 33 126 26 23 -3 68 0 100 6 78 14 183 24
265 23 49 0 70 -5 83 -18z m116 -27 c0 -5 -2 -10 -4 -10 -3 0 -8 5 -11 10 -3
6 -1 10 4 10 6 0 11 -4 11 -10z m-1051 -166 c-13 -7 -20 -13 -16 -14 4 0 -6
-15 -22 -32 -17 -18 -31 -39 -31 -45 0 -7 -5 -13 -12 -13 -6 0 -20 -7 -30 -17
-10 -9 -18 -11 -18 -6 0 6 7 13 15 17 8 3 14 9 13 13 -1 4 6 25 15 47 9 21 14
42 11 47 -3 5 2 6 10 3 10 -4 16 -1 16 8 0 10 10 13 37 10 36 -5 36 -5 12 -18z
m108 -30 c-3 -3 -12 -4 -19 -1 -8 3 -5 6 6 6 11 1 17 -2 13 -5z m1063 -176 c0
-14 -18 -9 -24 8 -11 28 -6 39 9 20 8 -11 15 -23 15 -28z m-1025 -17 c-3 -5 3
-12 12 -14 15 -4 15 -5 -2 -6 -12 0 -46 -10 -78 -21 -31 -11 -67 -20 -79 -19
-14 1 -5 6 22 13 33 9 40 14 25 18 -14 3 -6 7 22 12 24 4 45 12 49 17 3 5 12
9 20 9 8 0 13 -4 9 -9z m964 -25 c-2 -2 -17 -6 -34 -10 -22 -5 -26 -4 -15 4
14 9 59 15 49 6z m-99 -26 c12 -8 9 -10 -13 -10 -16 0 -26 4 -22 10 8 12 16
12 35 0z m383 -116 c-15 -24 -15 -24 22 -24 29 0 36 -3 31 -15 -3 -9 0 -15 10
-15 8 0 13 -4 10 -9 -4 -5 7 -12 24 -16 16 -4 29 -10 28 -13 0 -4 3 -27 7 -52
7 -36 10 -41 17 -25 7 16 7 15 3 -5 -2 -14 -5 -42 -5 -62 0 -30 -4 -38 -17
-38 -16 0 -16 2 -3 11 12 8 11 9 -5 6 -20 -3 -22 -9 -10 -38 4 -11 -1 -19 -17
-24 -21 -7 -20 -8 12 -15 19 -4 28 -8 18 -9 -9 0 -18 -5 -20 -11 -3 -10 -80 9
-94 23 -4 4 -17 7 -29 7 -12 0 -31 9 -43 20 -12 11 -26 20 -31 20 -5 0 -16 6
-23 13 -28 26 -78 57 -91 57 -20 0 -55 89 -56 143 0 36 3 47 15 47 8 0 13 4
10 9 -7 10 51 21 117 21 27 0 46 4 43 8 -3 5 17 9 44 9 l49 1 -16 -24z m-1216
-10 c-3 -3 -12 -4 -19 -1 -8 3 -5 6 6 6 11 1 17 -2 13 -5z m888 -252 c-3 -3
-11 0 -18 7 -9 10 -8 11 6 5 10 -3 15 -9 12 -12z m-1388 -44 c-3 -7 -5 -2 -5
12 0 14 2 19 5 13 2 -7 2 -19 0 -25z m1400 16 c-3 -3 -12 -4 -19 -1 -8 3 -5 6
6 6 11 1 17 -2 13 -5z m-1370 -26 c-3 -8 -6 -5 -6 6 -1 11 2 17 5 13 3 -3 4
-12 1 -19z m1272 -307 c9 -16 4 -24 -39 -51 -38 -25 -59 -31 -92 -29 -52 2
-108 -12 -192 -51 -78 -36 -96 -38 -88 -8 4 16 2 19 -8 13 -9 -5 -11 -4 -6 3
4 7 15 12 25 12 10 0 28 14 41 30 22 29 50 40 50 20 0 -5 7 -10 16 -10 12 0
15 6 11 21 -4 17 -3 19 6 10 14 -14 28 -14 25 1 -2 6 8 15 22 19 14 4 19 7 13
8 -17 1 -17 21 0 21 17 0 49 -39 42 -50 -7 -11 87 -1 95 10 3 4 18 10 35 14
l30 8 -25 13 -25 14 27 1 c17 0 31 -7 37 -19z m-999 -142 c0 -6 -4 -7 -10 -4
-5 3 -10 11 -10 16 0 6 5 7 10 4 6 -3 10 -11 10 -16z m1880 -104 c0 -29 -3
-36 -10 -25 -5 8 -10 33 -10 55 0 29 3 36 10 25 5 -8 10 -33 10 -55z m-903
-12 c6 -18 -53 -41 -126 -49 -60 -6 -185 7 -231 23 -28 11 53 23 179 28 69 3
127 8 130 11 9 9 44 0 48 -13z m1146 -84 c9 -17 17 -40 17 -51 0 -17 -2 -18
-15 -8 -8 7 -15 18 -15 25 0 8 -4 15 -9 17 -4 2 -12 13 -15 26 -11 34 16 28
37 -9z m94 -86 c-3 -10 -5 -4 -5 12 0 17 2 24 5 18 2 -7 2 -21 0 -30z m-1467
7 c0 -5 -4 -10 -10 -10 -5 0 -10 5 -10 10 0 6 5 10 10 10 6 0 10 -4 10 -10z
m80 -9 c0 -13 -10 -20 -37 -24 -20 -4 -39 -4 -42 -2 -2 3 3 5 13 5 13 0 16 5
11 20 -5 17 -2 20 24 20 24 0 31 -4 31 -19z m80 9 c0 -5 -3 -10 -7 -10 -5 0
-19 -3 -33 -6 -24 -5 -24 -5 -6 10 22 18 46 21 46 6z m1223 -45 c-3 -9 -8 -14
-10 -11 -3 3 -2 9 2 15 9 16 15 13 8 -4z m-28 -140 c-7 -28 -14 -41 -14 -29
-1 22 19 87 25 82 2 -2 -3 -26 -11 -53z m-259 -17 c-6 -46 -15 -131 -21 -194
-2 -21 -9 -70 -15 -109 -12 -73 -14 -85 -25 -225 -4 -47 -11 -90 -16 -96 -5
-6 -8 -20 -8 -30 1 -11 1 -27 1 -37 -2 -20 -16 -19 -125 7 l-57 13 -7 -26 c-3
-14 -10 -32 -16 -39 -5 -6 -6 -12 -2 -12 5 0 1 -8 -8 -18 -10 -10 -14 -22 -10
-25 3 -4 1 -7 -5 -7 -7 0 -12 -8 -12 -18 0 -10 -12 -34 -26 -53 -22 -29 -25
-31 -19 -9 4 14 18 47 31 74 13 28 24 54 24 59 0 5 8 21 18 35 10 15 28 61 41
102 12 41 31 102 42 135 11 33 24 80 29 105 10 50 48 162 58 170 4 3 15 23 25
44 14 30 15 41 6 47 -8 5 -6 11 10 20 11 8 21 24 21 36 0 12 8 27 18 32 15 9
15 12 2 21 -13 9 -13 11 0 19 8 5 18 7 22 5 4 -3 8 0 8 5 0 6 5 11 11 11 6 0
8 -16 5 -42z m281 0 c-3 -8 -6 -5 -6 6 -1 11 2 17 5 13 3 -3 4 -12 1 -19z m30
-25 c-3 -10 -5 -4 -5 12 0 17 2 24 5 18 2 -7 2 -21 0 -30z m-63 -48 c-4 -8 -8
-15 -10 -15 -2 0 -4 7 -4 15 0 8 4 15 10 15 5 0 7 -7 4 -15z m23 -17 c-3 -7
-5 -2 -5 12 0 14 2 19 5 13 2 -7 2 -19 0 -25z m-157 -508 c0 -5 -5 -10 -11
-10 -5 0 -7 5 -4 10 3 6 8 10 11 10 2 0 4 -4 4 -10z m37 -26 c-3 -3 -12 -4
-19 -1 -8 3 -5 6 6 6 11 1 17 -2 13 -5z m-157 -66 c10 -6 7 -7 -10 -2 -14 3
-32 11 -40 16 -10 6 -7 7 10 2 14 -3 32 -11 40 -16z m54 -17 c3 -5 16 -11 29
-15 42 -10 99 -37 93 -43 -3 -4 -16 -2 -29 4 -94 42 -130 62 -115 62 9 1 19
-3 22 -8z m-1464 -201 c0 -21 -5 -30 -16 -30 -9 0 -14 -6 -11 -13 3 -8 1 -20
-4 -28 -5 -9 -8 7 -6 43 2 48 5 58 20 58 12 0 17 -8 17 -30z m985 0 c3 -5 1
-10 -4 -10 -6 0 -11 5 -11 10 0 6 2 10 4 10 3 0 8 -4 11 -10z m37 -42 c-10
-17 -23 -33 -30 -36 -7 -2 -3 12 9 32 26 44 45 48 21 4z m-1027 -96 c-3 -3
-11 0 -18 7 -9 11 -9 14 1 18 6 3 13 21 14 41 1 30 2 28 5 -12 2 -26 2 -51 -2
-54z m-315 28 c0 -5 -5 -10 -11 -10 -5 0 -7 5 -4 10 3 6 8 10 11 10 2 0 4 -4
4 -10z m1301 -50 c5 0 9 -5 9 -11 0 -13 -51 -55 -62 -52 -5 2 -8 -6 -8 -16 0
-33 -17 -33 -22 0 -10 65 13 95 60 83 8 -2 18 -4 23 -4z"/>
<path d="M2700 2240 c0 -5 5 -10 10 -10 6 0 10 5 10 10 0 6 -4 10 -10 10 -5 0
-10 -4 -10 -10z"/>
<path d="M1988 1573 c6 -2 18 -2 25 0 6 3 1 5 -13 5 -14 0 -19 -2 -12 -5z"/>
<path d="M1760 1900 c0 -6 7 -10 15 -10 8 0 15 2 15 4 0 2 -7 6 -15 10 -8 3
-15 1 -15 -4z"/>
<path d="M1086 1816 c3 -9 11 -16 16 -16 13 0 5 23 -10 28 -7 2 -10 -2 -6 -12z"/>
<path d="M740 1570 c-11 -11 -20 -29 -20 -41 0 -48 -58 -116 -106 -125 -18 -3
-54 0 -81 8 -42 13 -54 13 -89 1 -39 -15 -114 -8 -215 18 -50 13 -81 11 -103
-6 -12 -9 -42 -15 -73 -15 l-53 0 0 -245 0 -245 133 -1 c72 0 202 -2 287 -5
125 -4 162 -2 192 10 20 9 39 20 42 25 9 14 53 171 61 216 4 22 18 59 31 81
33 59 51 118 59 199 13 136 13 138 -17 142 -18 2 -34 -3 -48 -17z"/>
<path d="M3330 1521 c-6 -12 -7 -21 -1 -21 10 0 24 30 17 37 -2 3 -9 -5 -16
-16z"/>
<path d="M4520 1450 c-30 -5 -96 -8 -147 -9 -62 -1 -94 -5 -100 -13 -13 -22
-32 -101 -33 -143 -1 -22 -4 -34 -7 -27 -2 6 -9 12 -14 12 -6 0 -5 -8 1 -20 6
-11 17 -20 25 -20 8 0 22 -11 30 -24 9 -13 27 -27 41 -30 14 -4 23 -10 20 -14
-2 -4 2 -16 10 -26 10 -15 16 -16 28 -7 11 9 15 8 19 -4 7 -18 62 -14 80 5 10
10 3 11 -33 7 -40 -5 -41 -5 -15 4 17 6 39 14 50 18 11 5 32 13 46 19 14 5 37
8 52 5 l27 -5 0 141 c0 107 -3 141 -12 140 -7 -1 -38 -5 -68 -9z m-107 -286
c-3 -8 -12 -13 -20 -10 -8 3 -18 6 -21 7 -8 0 29 17 40 18 4 1 5 -6 1 -15z"/>
<path d="M3500 1427 c0 -2 7 -18 16 -36 14 -28 14 -39 4 -77 -9 -31 -11 -81
-6 -161 7 -132 25 -180 22 -59 -1 76 8 90 19 26 3 -19 8 -42 10 -50 6 -22 17
-92 18 -112 1 -10 4 -18 8 -18 4 0 10 52 14 116 6 93 10 114 21 110 11 -4 12
-1 4 13 -5 11 -15 22 -22 24 -10 4 -10 6 0 6 7 1 10 5 7 11 -8 14 -16 48 -21
93 -2 23 -14 48 -29 63 -14 14 -25 31 -25 39 0 8 -9 15 -20 15 -11 0 -20 -2
-20 -3z m67 -139 c-3 -7 -5 -2 -5 12 0 14 2 19 5 13 2 -7 2 -19 0 -25z m20
-91 c0 -11 -8 -17 -24 -17 -19 0 -23 5 -22 28 2 23 2 24 6 4 2 -12 8 -20 13
-17 4 3 5 15 2 28 -5 20 -4 20 10 7 8 -8 15 -23 15 -33z"/>
<path d="M3791 1383 c7 -19 8 -73 4 -165 -5 -99 -4 -138 4 -138 6 0 11 -13 11
-30 0 -28 29 -57 43 -44 3 3 19 3 36 -1 33 -7 39 -23 19 -55 -10 -16 -9 -28 4
-64 16 -42 16 -47 -2 -82 -15 -28 -17 -41 -8 -57 8 -17 8 -19 -5 -14 -22 8
-54 -34 -62 -83 -4 -22 -10 -42 -14 -44 -15 -10 -44 133 -37 182 4 26 8 83 10
127 l3 80 -13 -54 c-16 -67 -12 -277 5 -309 7 -14 12 -52 10 -90 -5 -136 0
-211 15 -240 20 -38 42 -100 66 -182 25 -85 42 -120 59 -120 10 0 12 8 6 33
-4 17 -8 42 -7 54 0 13 -4 23 -8 23 -5 0 -5 14 0 31 5 16 7 36 4 43 -3 8 5 16
18 21 19 6 20 8 5 12 -24 6 -11 23 18 23 24 0 24 -2 19 -57 -6 -50 -4 -58 17
-73 22 -17 22 -50 -1 -50 -6 0 -8 5 -5 10 3 6 0 10 -8 10 -8 0 -17 -8 -21 -17
-3 -10 -9 -25 -12 -33 -5 -13 -4 -13 4 -1 8 12 15 12 34 4 13 -7 17 -12 11
-12 -7 -1 -13 -5 -13 -11 0 -6 33 -10 80 -10 49 0 80 4 80 11 0 5 -9 30 -20
53 -22 50 -23 62 -14 202 6 90 4 111 -20 195 -28 101 -76 297 -76 310 0 10
161 169 172 169 5 0 2 7 -6 16 -10 9 -14 24 -10 38 3 15 -2 28 -15 40 -12 11
-21 24 -21 29 0 6 9 2 20 -8 24 -22 24 -22 40 40 26 104 20 138 -25 146 -11 2
-24 14 -30 27 -5 12 -14 21 -19 19 -5 -2 -19 -42 -31 -91 -20 -74 -21 -87 -8
-84 16 3 56 115 47 130 -3 4 0 8 5 8 14 0 14 -24 -3 -86 -13 -48 -12 -51 8
-68 l21 -18 -21 6 c-18 6 -21 3 -16 -19 2 -15 0 -25 -7 -25 -7 0 -9 -5 -5 -11
4 -7 1 -10 -7 -7 -8 3 -14 17 -13 31 0 15 -5 28 -12 31 -8 3 -10 -3 -7 -17 l5
-22 -20 23 c-25 27 -34 28 -50 1 -15 -23 -7 -83 10 -73 16 10 27 -17 15 -38
-14 -21 -27 -24 -27 -4 0 8 -7 16 -15 20 -13 5 -13 1 0 -30 13 -32 13 -37 0
-51 -8 -8 -15 -23 -15 -34 0 -12 -7 -19 -20 -19 -25 0 -25 12 -1 34 25 23 33
63 13 71 -9 3 -12 0 -9 -7 2 -7 0 -24 -5 -38 -9 -23 -10 -24 -20 -7 -13 24 -1
98 13 76 13 -20 11 -2 -2 23 -10 18 -9 20 5 15 11 -4 15 -3 10 4 -4 6 -2 14 4
18 7 4 13 16 15 28 1 12 8 27 14 35 6 7 14 47 18 88 4 41 13 101 20 133 13 55
12 58 -8 69 -33 18 -44 20 -155 25 l-102 5 11 -29z m72 -330 c-7 -2 -19 -2
-25 0 -7 3 -2 5 12 5 14 0 19 -2 13 -5z m54 -135 c-3 -8 -6 -5 -6 6 -1 11 2
17 5 13 3 -3 4 -12 1 -19z m43 -184 c0 -2 -9 -4 -20 -4 -11 0 -20 4 -20 9 0 5
9 7 20 4 11 -3 20 -7 20 -9z"/>
<path d="M3421 1308 c-1 -9 4 -20 9 -23 6 -4 8 -16 4 -27 -5 -17 -3 -18 13 -9
15 7 19 18 15 41 -3 23 -7 28 -17 20 -9 -8 -14 -7 -18 2 -4 9 -6 7 -6 -4z"/>
<path d="M4070 1294 c-9 -23 -26 -164 -21 -179 0 -3 4 -4 9 -4 4 1 12 33 19
72 6 38 16 74 22 80 6 6 11 21 11 34 0 32 -28 30 -40 -3z"/>
<path d="M4497 1098 c-14 -37 -15 -45 -7 -58 11 -17 24 28 17 57 -4 17 -4 17
-10 1z"/>
<path d="M4445 1090 c3 -6 0 -10 -8 -10 -8 0 -18 -7 -21 -16 -7 -18 3 -64 14
-64 26 0 46 85 23 95 -8 2 -11 0 -8 -5z"/>
<path d="M4255 1010 c-9 -14 4 -70 16 -70 12 0 12 67 0 75 -5 3 -13 1 -16 -5z"/>
<path d="M3532 985 c0 -16 2 -22 5 -12 2 9 2 23 0 30 -3 6 -5 -1 -5 -18z"/>
<path d="M4477 1003 c-4 -3 -7 -11 -7 -17 0 -6 5 -5 12 2 6 6 9 14 7 17 -3 3
-9 2 -12 -2z"/>
<path d="M4431 991 c-12 -8 -12 -12 2 -26 16 -15 17 -15 17 9 0 29 0 29 -19
17z"/>
<path d="M1375 980 c-3 -5 -1 -10 4 -10 6 0 11 5 11 10 0 6 -2 10 -4 10 -3 0
-8 -4 -11 -10z"/>
<path d="M1376 932 c-2 -4 -1 -14 5 -22 7 -12 9 -10 9 8 0 23 -5 28 -14 14z"/>
<path d="M4431 924 c0 -11 3 -14 6 -6 3 7 2 16 -1 19 -3 4 -6 -2 -5 -13z"/>
<path d="M4567 891 c-31 -31 -47 -77 -47 -138 0 -24 -4 -43 -9 -43 -10 0 -20
48 -25 130 -2 30 -7 56 -10 58 -18 7 -27 0 -21 -18 4 -12 8 -53 10 -93 2 -40
8 -99 14 -132 12 -65 14 -112 6 -103 -3 3 -8 17 -11 32 -2 14 -9 38 -15 53 -6
15 -13 65 -16 111 -3 46 -9 79 -13 75 -12 -12 -30 -193 -24 -238 11 -92 15
-107 29 -101 22 8 29 -12 28 -86 0 -38 3 -70 6 -72 3 -2 15 2 26 10 10 8 13
14 7 14 -16 0 -15 27 1 33 9 4 8 8 -3 16 -13 9 -13 12 -1 20 7 5 11 13 7 19
-3 6 -2 13 3 17 5 3 14 -2 19 -11 7 -12 17 -15 41 -9 l31 7 0 239 c0 131 -1
239 -2 238 -2 -1 -15 -13 -31 -28z"/>
<path d="M4280 883 c5 -15 12 -41 16 -58 10 -45 15 -17 6 34 -4 25 -13 46 -19
48 -9 3 -9 -3 -3 -24z"/>
<path d="M4432 860 c0 -14 2 -19 5 -12 2 6 2 18 0 25 -3 6 -5 1 -5 -13z"/>
<path d="M3606 846 c3 -8 13 -12 25 -9 16 5 18 8 7 14 -20 13 -38 11 -32 -5z"/>
<path d="M1331 774 c-11 -31 -21 -61 -20 -67 0 -7 11 17 25 52 14 35 23 65 21
68 -2 2 -14 -22 -26 -53z"/>
<path d="M742 813 c-30 -6 -36 -22 -28 -87 7 -50 10 -55 44 -69 44 -19 102
-24 159 -13 47 9 51 15 46 71 -4 33 -11 44 -36 60 -67 41 -117 51 -185 38z"/>
<path d="M3346 783 c-3 -4 -6 -21 -6 -40 0 -23 5 -33 15 -33 20 0 19 -10 -1
-25 -14 -10 -15 -17 -6 -41 6 -16 11 -22 11 -13 1 9 12 20 26 23 32 8 32 21
-1 51 -20 18 -23 28 -16 42 10 18 -9 49 -22 36z"/>
<path d="M4305 733 c4 -27 11 -51 17 -54 5 -3 8 -41 6 -86 -2 -51 1 -79 7 -77
8 4 7 100 -4 252 -1 6 -8 12 -17 12 -14 0 -15 -8 -9 -47z"/>
<path d="M3540 701 c0 -6 5 -13 10 -16 6 -3 10 1 10 9 0 9 -4 16 -10 16 -5 0
-10 -4 -10 -9z"/>
<path d="M1301 674 c0 -11 3 -14 6 -6 3 7 2 16 -1 19 -3 4 -6 -2 -5 -13z"/>
<path d="M1145 611 c3 -6 14 -11 23 -11 15 0 15 -2 2 -11 -15 -11 -6 -9 52 7
16 5 20 3 15 -9 -4 -11 -2 -14 8 -11 21 8 27 33 7 32 -9 -1 -39 2 -66 6 -33 5
-46 4 -41 -3z"/>
<path d="M1273 565 c-6 -19 -7 -35 -3 -35 9 0 25 59 18 66 -3 2 -9 -12 -15
-31z"/>
<path d="M3321 584 c0 -11 3 -14 6 -6 3 7 2 16 -1 19 -3 4 -6 -2 -5 -13z"/>
<path d="M1135 560 c11 -5 27 -9 35 -9 9 0 8 4 -5 9 -11 5 -27 9 -35 9 -9 0
-8 -4 5 -9z"/>
<path d="M1049 538 c-14 -13 -50 -32 -79 -41 -9 -3 -6 -6 8 -6 20 -1 22 -5 16
-23 -4 -13 -12 -26 -18 -30 -8 -5 -7 -8 2 -8 10 0 10 -5 2 -20 -6 -11 -15 -19
-21 -17 -6 1 -13 -9 -15 -22 -3 -14 -11 -32 -19 -41 -7 -8 -21 -56 -30 -105
-9 -50 -20 -97 -25 -106 -4 -9 -7 -33 -6 -53 1 -21 -2 -40 -6 -42 -26 -16 3
-24 87 -24 l95 0 0 43 c0 23 -5 60 -11 82 -37 136 -34 209 9 254 19 20 39 49
49 71 15 35 55 60 96 62 41 1 41 1 7 5 -19 3 -39 8 -45 13 -20 17 -81 22 -96
8z m31 -8 c0 -5 -8 -10 -17 -10 -15 0 -16 2 -3 10 19 12 20 12 20 0z m-92
-233 c2 -39 0 -69 -3 -65 -4 4 -7 29 -7 55 0 35 -2 41 -7 23 -5 -17 -9 -21
-15 -12 -4 6 -4 17 0 24 4 7 3 8 -4 4 -7 -4 -12 -4 -12 0 0 8 32 42 40 43 3 1
6 -32 8 -72z m-41 -29 c-3 -8 -6 -5 -6 6 -1 11 2 17 5 13 3 -3 4 -12 1 -19z
m20 -35 c-3 -3 -11 -2 -17 2 -9 6 -9 10 1 16 14 8 27 -7 16 -18z m-22 -103
c-27 -12 -35 -12 -35 0 0 6 12 10 28 9 24 0 25 -1 7 -9z"/>
<path d="M3559 525 c-5 -41 9 -125 22 -125 15 0 10 94 -6 116 -8 10 -15 15
-16 9z"/>
<path d="M3260 472 c0 -15 5 -33 12 -40 9 -9 9 -12 0 -12 -7 0 -12 -9 -12 -20
0 -11 7 -20 15 -20 11 0 15 12 15 44 0 24 -3 51 -6 60 -10 26 -24 18 -24 -12z"/>
<path d="M3382 493 c-20 -4 -23 -10 -20 -40 3 -32 6 -36 36 -39 30 -4 32 -2
32 25 0 33 -9 62 -19 60 -3 -1 -16 -4 -29 -6z"/>
<path d="M3317 483 c-11 -10 -8 -51 4 -59 18 -10 32 13 25 40 -6 26 -16 32
-29 19z"/>
<path d="M902 458 c2 -5 8 -9 13 -9 5 0 11 4 13 9 1 5 -4 9 -13 9 -9 0 -14 -4
-13 -9z"/>
<path d="M1247 450 c-4 -14 -6 -36 -6 -50 1 -22 2 -20 10 8 6 19 9 41 7 50 -3
12 -6 10 -11 -8z"/>
<path d="M850 433 c-19 -8 -37 -18 -40 -22 -3 -4 -14 -11 -24 -14 -10 -4 -17
-10 -14 -13 8 -8 87 -11 82 -3 -2 4 5 9 16 12 11 3 20 0 21 -6 0 -7 4 -2 9 11
5 12 14 22 20 22 5 0 10 5 10 11 0 5 -4 8 -9 4 -5 -3 -12 -1 -16 5 -8 12 -12
12 -55 -7z"/>
<path d="M192 420 c-55 -8 -82 -23 -82 -46 0 -8 -3 -14 -8 -14 -4 0 -6 -33 -4
-72 5 -99 -6 -123 -57 -132 l-41 -6 0 -75 0 -75 218 0 c215 0 218 0 254 25 46
31 57 31 53 0 -2 -22 2 -25 27 -25 22 0 29 4 25 14 -3 7 -2 17 3 22 5 5 14 41
20 79 6 39 13 81 16 95 3 17 2 20 -3 8 -5 -10 -13 -14 -20 -10 -8 5 -4 19 16
49 16 23 32 39 36 35 5 -4 5 1 2 11 -4 9 -2 17 3 17 6 0 10 9 10 20 0 11 5 20
10 20 18 0 11 22 -16 46 -25 24 -28 24 -217 23 -106 -1 -216 -5 -245 -9z m378
-250 c0 -5 -4 -10 -10 -10 -5 0 -10 5 -10 10 0 6 5 10 10 10 6 0 10 -4 10 -10z"/>
<path d="M4520 411 c0 -5 5 -13 10 -16 6 -3 10 -2 10 4 0 5 -4 13 -10 16 -5 3
-10 2 -10 -4z"/>
<path d="M3147 399 c7 -7 15 -10 18 -7 3 3 -2 9 -12 12 -14 6 -15 5 -6 -5z"/>
<path d="M3316 401 c-4 -5 3 -15 15 -21 18 -10 20 -9 17 6 -4 20 -23 30 -32
15z"/>
<path d="M830 335 c-8 -9 -8 -15 -2 -15 12 0 26 19 19 26 -2 2 -10 -2 -17 -11z"/>
<path d="M865 340 c-3 -5 -1 -10 4 -10 6 0 11 5 11 10 0 6 -2 10 -4 10 -3 0
-8 -4 -11 -10z"/>
<path d="M715 288 c-37 -65 -48 -91 -35 -83 5 3 17 23 27 43 9 20 25 49 35 65
11 15 16 27 11 27 -4 0 -21 -24 -38 -52z"/>
<path d="M1185 302 c-9 -37 -47 -112 -56 -112 -5 0 -13 -18 -19 -41 -6 -22
-14 -47 -17 -55 -3 -8 0 -14 6 -14 6 0 11 6 11 14 0 7 8 24 18 37 10 13 28 56
41 94 13 39 28 75 33 82 5 7 5 14 0 17 -6 3 -13 -6 -17 -22z"/>
<path d="M4479 315 c-8 -30 -3 -101 10 -145 l16 -55 3 43 c2 33 7 42 21 42 12
0 21 -10 25 -25 9 -34 46 -35 46 -1 0 30 -13 39 -51 38 -28 -1 -29 0 -29 54 0
47 -2 54 -20 54 -11 0 -21 -2 -21 -5z"/>
<path d="M2060 220 c0 -5 5 -10 10 -10 6 0 10 5 10 10 0 6 -4 10 -10 10 -5 0
-10 -4 -10 -10z"/>
<path d="M847 206 c-4 -10 -7 -30 -6 -44 1 -25 1 -25 10 6 11 37 7 67 -4 38z"/>
<path d="M816 198 c-13 -41 -17 -72 -8 -63 12 12 26 75 17 75 -3 0 -7 -6 -9
-12z"/>
<path d="M760 158 c-7 -24 -24 -67 -37 -96 -13 -29 -23 -55 -23 -57 0 -3 20
-5 45 -5 29 0 45 4 45 13 0 6 3 23 7 37 6 22 5 24 -10 11 -9 -7 -17 -11 -17
-9 0 10 21 114 26 131 3 10 0 17 -9 17 -8 0 -20 -19 -27 -42z m20 -128 c0 -5
-4 -10 -10 -10 -5 0 -10 5 -10 10 0 6 5 10 10 10 6 0 10 -4 10 -10z"/>
<path d="M826 98 c-3 -13 -6 -34 -6 -49 0 -14 -5 -30 -12 -37 -9 -9 -8 -12 4
-12 12 0 17 14 21 58 5 62 3 75 -7 40z"/>
<path d="M797 103 c-4 -3 -7 -11 -7 -17 0 -6 5 -5 12 2 6 6 9 14 7 17 -3 3 -9
2 -12 -2z"/>
<path d="M3834 90 c4 -14 9 -40 13 -58 3 -17 10 -32 14 -32 16 0 9 49 -12 82
-18 28 -20 30 -15 8z"/>
<path d="M1840 90 c0 -5 6 -10 14 -10 8 0 18 5 21 10 3 6 -3 10 -14 10 -12 0
-21 -4 -21 -10z"/>
<path d="M1898 93 c7 -3 16 -2 19 1 4 3 -2 6 -13 5 -11 0 -14 -3 -6 -6z"/>
<path d="M1950 73 c0 -1 14 -10 30 -18 29 -15 30 -15 19 2 -9 15 -49 28 -49
16z"/>
<path d="M3810 10 c0 -5 5 -10 10 -10 6 0 10 5 10 10 0 6 -4 10 -10 10 -5 0
-10 -4 -10 -10z"/>
<path d="M2058 3 c7 -3 16 -2 19 1 4 3 -2 6 -13 5 -11 0 -14 -3 -6 -6z"/>
</g>
</svg>
